<?xml version="1.0" standalone="no"?>
<!DOCTYPE svg PUBLIC "-//W3C//DTD SVG 20010904//EN"
 "http://www.w3.org/TR/2001/REC-SVG-20010904/DTD/svg10.dtd">
<svg version="1.0" xmlns="http://www.w3.org/2000/svg"
 width="404.000000pt" height="316.000000pt" viewBox="0 0 404.000000 316.000000"
 preserveAspectRatio="xMidYMid meet">

<g transform="translate(0.000000,316.000000) scale(0.100000,-0.100000)"
fill="#000000" stroke="none">
<path d="M1471 1058 c-12 -29 -30 -70 -40 -90 l-19 -38 26 0 c19 0 23 3 13 9
-23 15 4 51 39 51 29 0 49 -28 35 -50 -4 -6 7 -10 27 -10 19 0 28 4 21 8 -7 4
-26 45 -43 90 -18 45 -33 82 -35 82 -1 0 -12 -24 -24 -52z m33 -20 c9 -35 8
-38 -18 -38 -23 0 -24 2 -15 30 13 36 24 38 33 8z"/>
<path d="M1582 1093 c24 -27 58 -100 58 -122 0 -11 -8 -25 -17 -30 -14 -8 -10
-10 22 -10 22 0 34 3 28 6 -30 12 -7 100 40 151 l20 22 -26 0 c-18 0 -25 -4
-21 -14 3 -7 -4 -28 -15 -46 l-19 -32 -17 32 c-9 17 -14 38 -11 46 4 10 -3 14
-26 14 -29 0 -30 -1 -16 -17z"/>
<path d="M1769 1081 c-45 -46 -35 -117 20 -146 44 -22 69 -19 102 14 60 61 24
161 -58 161 -25 0 -43 -8 -64 -29z m101 -1 c15 -15 20 -33 20 -70 0 -42 -4
-52 -25 -66 -48 -31 -95 12 -95 87 0 33 31 69 60 69 11 0 29 -9 40 -20z"/>
<path d="M1969 1097 c16 -16 14 -154 -1 -160 -7 -3 13 -6 44 -6 73 -1 118 31
118 86 0 47 -14 70 -52 82 -44 14 -123 12 -109 -2z m95 -8 c70 -32 44 -156
-31 -147 -27 3 -28 5 -31 67 -4 94 5 106 62 80z"/>
<path d="M2180 1096 c14 -14 13 -139 -2 -154 -9 -9 -4 -12 23 -12 22 0 29 3
21 9 -8 5 -12 22 -10 42 3 32 5 34 46 37 l42 3 0 -40 c0 -22 -5 -42 -12 -44
-7 -3 5 -5 27 -5 22 0 34 2 28 5 -17 6 -18 144 -1 161 9 9 3 12 -27 12 -30 0
-36 -3 -27 -12 7 -7 12 -25 12 -40 0 -27 -2 -28 -45 -28 -43 0 -45 1 -45 28 0
15 5 33 11 39 9 9 4 12 -20 11 -22 -1 -29 -4 -21 -12z"/>
<path d="M2387 1087 c47 -50 70 -138 41 -150 -7 -3 5 -6 27 -6 32 0 36 2 23
10 -10 5 -18 19 -18 30 0 25 35 94 60 119 20 20 20 20 -12 20 -23 0 -29 -3
-21 -11 8 -8 5 -21 -10 -46 l-20 -35 -18 33 c-10 21 -14 38 -8 45 6 7 -3 11
-28 12 l-36 2 20 -23z"/>
<path d="M2581 1058 c-12 -29 -30 -70 -40 -90 l-19 -38 26 0 c19 0 23 3 13 9
-23 15 4 51 39 51 29 0 49 -28 35 -50 -4 -6 7 -10 27 -10 19 0 28 4 21 8 -7 4
-26 45 -43 90 -18 45 -33 82 -35 82 -1 0 -12 -24 -24 -52z m33 -20 c9 -35 8
-38 -14 -38 -20 0 -25 15 -14 44 9 23 21 20 28 -6z"/>
</g>
</svg>
